<?xml version="1.0" standalone="no"?><!DOCTYPE svg PUBLIC "-//W3C//DTD SVG 1.1//EN" "http://www.w3.org/Graphics/SVG/1.1/DTD/svg11.dtd"><svg t="1749803856854" class="icon" viewBox="0 0 1024 1024" version="1.1" xmlns="http://www.w3.org/2000/svg" p-id="2459" width="16" height="16" xmlns:xlink="http://www.w3.org/1999/xlink"><path d="M512 524.9c-19.3 0-35-15.7-35-35V137c0-19.3 15.7-35 35-35s35 15.7 35 35v352.9c0 19.3-15.7 35-35 35z" fill="#FB86A3" p-id="2460"></path><path d="M512 922c-51.8 0-102.1-10.2-149.4-30.2-45.7-19.3-86.8-47-122-82.3-35.2-35.2-62.9-76.3-82.3-122-20-47.4-30.2-97.6-30.2-149.4 0-142.3 78.2-272.3 204.2-339.1 17.1-9.1 38.3-2.6 47.3 14.5 9.1 17.1 2.6 38.3-14.5 47.3-103 54.7-167 160.9-167 277.3C198.1 711.2 338.9 852 512 852s313.9-140.8 313.9-313.9c0-116.4-64-222.6-167-277.3-17.1-9.1-23.6-30.3-14.5-47.3 9.1-17.1 30.2-23.6 47.3-14.5 126 66.9 204.2 196.8 204.2 339.1 0 51.8-10.2 102.1-30.2 149.4-19.3 45.7-47 86.8-82.3 122-35.2 35.2-76.3 62.9-122 82.3-47.3 20-97.6 30.2-149.4 30.2z" fill="#FB86A3" p-id="2461"></path></svg>