<svg width="24" height="24" viewBox="0 0 24 24" fill="none" xmlns="http://www.w3.org/2000/svg">
<rect width="24" height="24" rx="12" fill="#F1F3F6"/>
<path d="M12.9285 12.0003L17.8149 7.11208C18.0614 6.8627 18.0614 6.46147 17.8149 6.21208L17.7879 6.18508C17.5387 5.93831 17.1372 5.93831 16.8879 6.18508L12.0021 11.0799L7.11628 6.18508C6.86703 5.93831 6.46553 5.93831 6.21627 6.18508L6.18987 6.21208C5.94134 6.45417 5.93612 6.85189 6.1782 7.10042C6.18204 7.10436 6.18593 7.10825 6.18987 7.11208L11.0757 12.0003L6.18987 16.8879C5.94343 17.1373 5.94343 17.5385 6.18987 17.7879L6.21627 17.8149C6.46553 18.0617 6.86703 18.0617 7.11628 17.8149L12.0021 12.9273L16.8879 17.8149C17.1371 18.0617 17.5386 18.0617 17.7879 17.8149L17.8149 17.7885C18.0613 17.5391 18.0613 17.1379 17.8149 16.8885L12.9285 12.0003Z" fill="#222222"/>
</svg>
