<svg width="24" height="24" viewBox="0 0 24 24" fill="none" xmlns="http://www.w3.org/2000/svg">
<rect width="24" height="24" rx="12" fill="#F1F3F6"/>
<path d="M17.768 12C17.768 11.184 18.28 10.488 19 10.208C18.832 9.536 18.56 8.896 18.216 8.312C17.512 8.624 16.656 8.496 16.08 7.92C15.504 7.344 15.376 6.488 15.688 5.784C15.104 5.44 14.464 5.168 13.792 5C13.512 5.72 12.824 6.232 12 6.232C11.184 6.232 10.488 5.72 10.208 5C9.536 5.168 8.896 5.44 8.312 5.784C8.624 6.488 8.496 7.344 7.92 7.92C7.344 8.496 6.488 8.624 5.784 8.312C5.432 8.896 5.168 9.536 5 10.208C5.72 10.488 6.232 11.176 6.232 12C6.232 12.816 5.72 13.512 5 13.792C5.168 14.464 5.44 15.104 5.784 15.688C6.488 15.376 7.344 15.504 7.92 16.08C8.496 16.656 8.624 17.512 8.312 18.216C8.896 18.56 9.536 18.832 10.208 19C10.488 18.28 11.176 17.768 12 17.768C12.816 17.768 13.512 18.28 13.792 19C14.464 18.832 15.104 18.56 15.688 18.216C15.376 17.512 15.504 16.656 16.08 16.08C16.656 15.504 17.512 15.376 18.216 15.688C18.568 15.104 18.832 14.464 19 13.792C18.28 13.512 17.768 12.816 17.768 12ZM12 13.92C10.936 13.92 10.08 13.056 10.08 12C10.08 10.944 10.944 10.08 12 10.08C13.056 10.08 13.92 10.944 13.92 12C13.92 13.056 13.064 13.92 12 13.92Z" fill="#222222"/>
</svg>
