<svg width="24" height="24" viewBox="0 0 24 24" fill="none" xmlns="http://www.w3.org/2000/svg">
<path d="M6.02424 18.9999C5.45862 18.9999 5.00004 18.5414 5.00004 17.9758C5.00004 17.9727 5.00004 17.9695 5.00004 17.9664V8.57045C4.9949 8.00485 5.4492 7.54213 6.0148 7.53694C6.01795 7.53692 6.0211 7.5369 6.02424 7.5369H8.06316V6.03355C8.06316 5.46274 8.52589 5 9.09671 5H17.9664C18.5373 5 19 5.46274 19 6.03355V14.8939C19 15.4595 18.5415 15.9181 17.9758 15.9181C17.9727 15.9181 17.9696 15.9181 17.9664 15.9181H16.4349V17.9664C16.4401 18.532 15.9858 18.9947 15.4202 18.9999C15.417 18.9999 15.4139 18.9999 15.4107 18.9999H6.02424ZM15.2322 17.7972V8.75836H6.20275V17.7878L15.2322 17.7972ZM17.7597 14.7154V6.20268H9.26584V7.55569H15.4108C15.9764 7.55567 16.4349 8.01418 16.435 8.57981C16.435 8.58295 16.4349 8.5861 16.4349 8.58924V14.7154H17.7597Z" fill="#222222"/>
</svg>
