<?xml version="1.0" standalone="no"?><!DOCTYPE svg PUBLIC "-//W3C//DTD SVG 1.1//EN" "http://www.w3.org/Graphics/SVG/1.1/DTD/svg11.dtd"><svg t="1733716363571" class="icon" viewBox="0 0 1024 1024" version="1.1" xmlns="http://www.w3.org/2000/svg" p-id="5944" xmlns:xlink="http://www.w3.org/1999/xlink" width="32" height="32"><path d="M871 575.33c0-114.69-93.31-208-208-208h-14.7v-91.21c0-74.06-60.25-134.31-134.3-134.31s-134.3 60.25-134.3 134.31v91.21H365c-114.68 0-208 93.31-208 208a60.68 60.68 0 0 0 57.32 60.51v92.25c0.78 24.74-4.61 81.83-26.18 100.32a30 30 0 0 0 19.52 52.78h521.52a29.92 29.92 0 0 0 11.14-2.19c3.6-1.44 22.47-9.78 40.39-32.56 15.65-19.89 34-55.79 33-114v-96.66A60.68 60.68 0 0 0 871 575.33zM439.7 276.12a74.3 74.3 0 1 1 148.6 0v91.21H439.7zM365 427.33h298c81.6 0 148 66.39 148 148a0.61 0.61 0 0 1-0.61 0.61H217.61a0.61 0.61 0 0 1-0.61-0.61c0-81.61 66.39-148 148-148z m356.4 393.86H260.62c14.37-41 13.94-85.85 13.7-94.48v-90.77h52.24v74.42a30 30 0 0 0 60 0v-74.42h45.56v74.42a30 30 0 0 0 60 0v-74.42h45.55v74.42a30 30 0 0 0 60 0v-74.42h45.56v74.42a30 30 0 1 0 60 0v-74.42h50.47v97.44c1.13 58.36-22.56 80.98-32.31 87.81z" p-id="5945" fill="#ffffff"></path></svg>