<?xml version="1.0" standalone="no"?><!DOCTYPE svg PUBLIC "-//W3C//DTD SVG 1.1//EN" "http://www.w3.org/Graphics/SVG/1.1/DTD/svg11.dtd"><svg t="1655363312045" class="icon" viewBox="0 0 1024 1024" version="1.1" xmlns="http://www.w3.org/2000/svg" p-id="4944" xmlns:xlink="http://www.w3.org/1999/xlink" width="16" height="16"><defs><style type="text/css">@font-face { font-family: feedback-iconfont; src: url("//at.alicdn.com/t/font_1031158_u69w8yhxdu.woff2?t=1630033759944") format("woff2"), url("//at.alicdn.com/t/font_1031158_u69w8yhxdu.woff?t=1630033759944") format("woff"), url("//at.alicdn.com/t/font_1031158_u69w8yhxdu.ttf?t=1630033759944") format("truetype"); }
</style></defs><path d="M867.8 1024H156.2C70.1 1024 0 953.9 0 867.8V156.2C0 70.1 70.1 0 156.2 0h711.6C953.9 0 1024 70.1 1024 156.2v711.6c0 86.1-70.1 156.2-156.2 156.2zM156.2 104.1c-28.7 0-52.1 23.4-52.1 52.1v711.6c0 28.7 23.4 52.1 52.1 52.1h711.6c28.7 0 52.1-23.4 52.1-52.1V156.2c0-28.7-23.4-52.1-52.1-52.1H156.2z" p-id="4945" fill="#707070"></path></svg>