<?xml version="1.0" encoding="iso-8859-1"?>
<!-- Generator: Adobe Illustrator 23.0.0, SVG Export Plug-In . SVG Version: 6.00 Build 0)  -->
<svg version="1.0" id="图层_1" xmlns="http://www.w3.org/2000/svg" xmlns:xlink="http://www.w3.org/1999/xlink" x="0px" y="0px" viewBox="0 0 48 48" enable-background="new 0 0 48 48" xml:space="preserve">
	<path id="&#x8DEF;&#x5F84;_12" style="fill:#a5a6aa;" d="M40.608,16.215C37.602,8.313,28.759,4.343,20.856,7.349
	c-2.749,1.046-5.139,2.861-6.883,5.23C7.284,11.62,1.084,16.264,0.125,22.953c-0.516,3.6,0.596,7.243,3.034,9.941
	c1.605,1.773,3.694,3.037,6.009,3.636c1.322,3.938,5.586,6.059,9.525,4.737c3.066-1.029,5.131-3.903,5.128-7.137
	c0-0.238-0.012-0.489-0.036-0.727l10.563-5.544l-2.313-4.006l-10.1,5.305c-2.74-3.125-7.494-3.437-10.619-0.696
	c-0.963,0.845-1.695,1.922-2.126,3.128c-3.818-1.676-5.555-6.13-3.879-9.948s6.13-5.555,9.948-3.879
	c0.333,0.146,0.656,0.317,0.965,0.51c1.851-5.557,7.856-8.562,13.414-6.712c3.914,1.304,6.718,4.759,7.186,8.858
	c0.19-0.02,0.381-0.028,0.572-0.024c3.266,0.022,5.895,2.687,5.873,5.952c-0.02,3.036-2.337,5.564-5.36,5.848h-3.386
	c-0.153-0.034-0.309-0.05-0.465-0.048c-1.302-0.005-2.362,1.046-2.368,2.348c-0.005,1.236,0.945,2.266,2.177,2.361v0.024H38.1
	l0.2-0.012c5.832-0.504,10.152-5.641,9.648-11.473c-0.369-4.266-3.268-7.891-7.348-9.189L40.608,16.215z M16.308,31.225
	c1.607,0,2.909,1.302,2.909,2.909s-1.302,2.909-2.909,2.909c-1.607,0-2.909-1.302-2.909-2.909c0,0,0,0,0,0
	c0.002-1.606,1.305-2.908,2.911-2.909L16.308,31.225z" />
</svg>