<?xml version="1.0" encoding="utf-8"?>
<!-- Generator: Adobe Illustrator 26.0.2, SVG Export Plug-In . SVG Version: 6.00 Build 0)  -->
<svg version="1.0" id="图层_1" xmlns="http://www.w3.org/2000/svg" xmlns:xlink="http://www.w3.org/1999/xlink" x="0px" y="0px"
	 viewBox="0 0 48 48" enable-background="new 0 0 48 48" xml:space="preserve">
<g>
	<rect id="矩形_52_2_" fill="none" width="48" height="48" />
	<g>
		<path fill-rule="evenodd" clip-rule="evenodd" fill="#a5a6aa" d="M36.477,15.068l8.24-0.011c-3.9-6.828-14.825-9.095-25.444-4.984
			c-1.779,0.689-3.443,1.516-4.974,2.452c1.079-0.458,2.214-0.852,3.4-1.171C25.349,9.296,32.773,10.957,36.477,15.068"/>
		<path fill-rule="evenodd" clip-rule="evenodd" fill="#a5a6aa" d="M36.435,28.145c-2.531,3.45-6.834,6.361-12.127,7.783
			c-9.478,2.55-18.609-0.608-20.747-7.062c0.048,1.23,0.285,2.441,0.736,3.607c3.087,7.973,14.798,10.871,26.155,6.473
			c6.12-2.37,10.884-6.375,13.498-10.812L36.435,28.145z"/>
		<path fill-rule="evenodd" clip-rule="evenodd" fill="#a5a6aa" d="M19.666,26.648l-0.244-0.996
			c-0.796,0.223-1.042,0.436-2.14,0.535c-2.253,0.201-4.785-0.746-4.56-3.463c0.405-4.901,6.796-7.088,9.511-5.11
			c1.697,1.237,1.219,4.23-0.536,5.336c-0.419,0.264-1.814,0.701-1.803-0.202c0.006-0.569,1.494-3.352,1.533-3.758l-1.298,0.003
			l-0.333,0.546c-0.109-0.24-0.304-0.704-1.338-0.652c-2.913,0.146-5.123,4.344-2.952,5.263c0.535,0.227,1.185,0.187,1.729,0.001
			c0.648-0.222,0.816-0.416,1.278-0.734c0.116,0.14,0.181,1.221,2.103,0.984c2.386-0.293,4.285-2.604,4.053-5.197
			c-0.431-4.83-8.818-4.286-11.944-0.015s-1.317,8.59,4.42,8.119C17.834,27.25,19.179,26.967,19.666,26.648 M18.145,20.111
			c0.44-0.11,0.983,0.038,1.039,0.382c0.012,0.072-0.696,1.865-0.883,2.052c-0.607,0.611-1.739,0.925-1.973,0.179
			C16.081,21.939,16.976,20.406,18.145,20.111"/>
		<path fill="#a5a6aa" d="M29.557,24.599l-1.104-0.005l0.029-0.152c0.197-1.038,0.648-3.224,1.045-5.152
			c0.313-1.515,0.635-3.075,0.721-3.541c-0.599,0.005-2.341,0.003-2.796,0.002l-0.314,1.563c-0.608,3.016-1.818,9.028-2.024,10.06
			c1.515-0.002,6.972-0.015,8.03-0.021l0.551-2.745C32.501,24.611,30.951,24.605,29.557,24.599"/>
		<path fill="#a5a6aa" d="M8.014,15.746l-1.564,7.605c-0.202,0.984-0.819,1.551-1.693,1.552c-0.35,0-0.605-0.093-0.757-0.279
			c-0.183-0.221-0.231-0.593-0.137-1.072l0.139-0.671l-2.759,0.004L1.107,23.54c-0.24,1.162-0.076,2.101,0.485,2.79
			c0.58,0.711,1.546,1.086,2.793,1.085c2.499-0.003,4.282-1.424,4.77-3.799l1.616-7.873L8.014,15.746z"/>
		<path fill="#a5a6aa" d="M43.725,23.366l-0.041,0.068c-0.574,0.945-1.57,1.592-2.674,1.626c-0.812,0.025-1.44-0.269-1.825-0.847
			c-0.401-0.601-0.524-1.481-0.357-2.543c0.173-1.097,0.578-2.007,1.172-2.631c0.566-0.596,1.307-0.928,2.142-0.958
			c1.092-0.043,1.746,0.362,2.118,1.309l0.059,0.152L47,19.554c0,0,0.003-0.575-0.033-0.766c-0.367-1.961-2.057-3.067-4.467-2.982
			c-1.778,0.067-3.316,0.738-4.447,1.939c-0.981,1.041-1.631,2.433-1.881,4.025c-0.428,2.726,0.47,5.58,4.223,5.574
			c0.091,0,0.184-0.002,0.278-0.005c2.173-0.081,3.952-1.038,5.088-2.719c0.26-0.384,0.453-0.81,0.604-1.249L43.725,23.366z"/>
	</g>
</g>
</svg>
